<svg version="1.1" xmlns="http://www.w3.org/2000/svg" xmlns:xlink="http://www.w3.org/1999/xlink" width="465.46006" height="114.67261" viewBox="0,0,465.46006,114.67261"><defs><linearGradient x1="74.43709" y1="220.1604" x2="172.92231" y2="220.1604" gradientUnits="userSpaceOnUse" id="color-1"><stop offset="0" stop-color="#ffffff" stop-opacity="0"/><stop offset="1" stop-color="#ffffff"/></linearGradient><linearGradient x1="53.57723" y1="179.41831" x2="152.06245" y2="179.41831" gradientUnits="userSpaceOnUse" id="color-2"><stop offset="0" stop-color="#ffffff" stop-opacity="0"/><stop offset="1" stop-color="#ffffff"/></linearGradient><linearGradient x1="84.53168" y1="135.66375" x2="183.0169" y2="135.66375" gradientUnits="userSpaceOnUse" id="color-3"><stop offset="0" stop-color="#ffffff" stop-opacity="0"/><stop offset="1" stop-color="#ffffff"/></linearGradient></defs><g transform="translate(-15.10743,-122.87972)"><g data-paper-data="{&quot;isPaintingLayer&quot;:true}" fill-rule="nonzero" stroke-linejoin="miter" stroke-miterlimit="10" stroke-dasharray="" stroke-dashoffset="0" style="mix-blend-mode: normal"><path d="M74.43709,233.05824c0,0 -31.2649,-1.39247 -37.70002,-4.58953c-4.83592,-2.40255 14.69479,-6.45009 14.69479,-8.22117c0,-1.66237 -12.56557,-2.76355 -8.53942,-4.90961c3.22951,-1.72143 14.66907,-1.95776 11.24929,-3.87109c-3.72152,-2.08215 20.29538,-4.20429 20.29538,-4.20429h98.48522v25.79569z" fill="url(#color-1)" stroke="none" stroke-width="0" stroke-linecap="butt"/><path d="M53.57723,210.9934c0,0 -31.2649,-3.40891 -37.70002,-11.23559c-4.83592,-5.88166 14.69479,-15.7904 14.69479,-20.12617c0,-4.06965 -12.56557,-6.76543 -8.53942,-12.01917c3.22951,-4.21421 14.66907,-4.79277 11.24929,-9.47677c-3.72152,-5.09731 20.29538,-10.29249 20.29538,-10.29249h98.48522v63.15018z" fill="url(#color-2)" stroke="none" stroke-width="0" stroke-linecap="butt"/><path d="M84.53168,147.9591c0,0 -31.2649,-1.32743 -37.70002,-4.37513c-4.83592,-2.29032 14.69479,-6.14879 14.69479,-7.83714c0,-1.58472 -12.56557,-2.63446 -8.53942,-4.68026c3.22951,-1.64101 14.66907,-1.86631 11.24929,-3.69027c-3.72152,-1.9849 20.29538,-4.0079 20.29538,-4.0079h98.48522v24.5907z" fill="url(#color-3)" stroke="none" stroke-width="0" stroke-linecap="butt"/><path d="M212.67654,189.5322v-18.25209h17.87184l0.19013,10.2668c0,0 -6.4688,-0.64212 -8.36554,0.19013c-3.19635,1.40249 -9.69642,7.79516 -9.69642,7.79516z" fill="#afafaf" stroke="#000000" stroke-width="3.5" stroke-linecap="butt"/><path d="M159.06103,150.55639c0,0 4.88625,-0.73706 5.39244,-1.83876c0.48847,-1.06312 -0.71705,-6.38275 0.24989,-9.20955c1.95623,-5.71897 4.05409,-10.05565 4.05409,-10.05565l19.96322,0.38025v20.72372z" fill="#afafaf" stroke="#000000" stroke-width="2.5" stroke-linecap="butt"/><path d="M149.44368,235.80232l-17.11133,-80.61339l5.53142,-8.94127l85.72902,0.19548l4.83407,19.68997c-7.858,0.59298 -14.04932,7.15669 -14.04932,15.16645c0,8.40028 6.80978,15.21007 15.21007,15.21007c1.49685,0 2.94319,-0.21623 4.30952,-0.61914c0.63137,0.18619 1.27982,0.33251 1.94245,0.43606l6.80337,27.71135l-5.36109,11.76443h-26.68142c0.74586,-1.79561 0.31258,-12.16806 0.31258,-12.16806l0.17522,7.79566c0,0 -8.93704,-5.05133 -14.39302,-4.95388c-5.45597,0.09745 -13.62786,6.24503 -13.62786,6.24503l-0.12398,-9.25582c0,0 0.0726,10.94556 0.6506,12.33706z" data-paper-data="{&quot;index&quot;:null}" fill="#afafaf" stroke="#000000" stroke-width="3.5" stroke-linecap="butt"/><path d="M121.46934,188.3976c0,-3.56837 1.52101,-0.7605 1.52101,-0.7605l33.46216,2.28151l-10.90054,19.26608c0,0 -4.75547,3.28881 -10.14868,3.22111c-2.70215,-0.03392 -6.5137,-2.23949 -8.06292,-3.45711c-2.03824,-1.60196 -4.99817,-6.60777 -4.99817,-6.60777c0,0 -0.87286,-12.69013 -0.87286,-13.94333z" fill="#afafaf" stroke="#000000" stroke-width="3.5" stroke-linecap="butt"/><path d="M158.94997,223.25401l-18.63234,-76.81087h83.27515l6.80535,23.75039c-0.92696,0.07342 -5.34636,-0.08238 -9.3091,2.10354c-3.53773,1.95147 -6.71152,6.07804 -6.71152,9.00251c0,8.40028 6.80978,15.21007 15.21007,15.21007c1.49685,0 2.94319,-0.21621 4.30952,-0.61913c0.58291,0.17189 1.18038,0.30981 1.79013,0.41145l6.53787,26.95207h-31.94273c-2.48076,-5.03111 -7.66116,-8.49229 -13.64995,-8.49229c-5.9888,0 -11.16918,3.46117 -13.64995,8.49229z" data-paper-data="{&quot;index&quot;:null}" fill="#ffffff" stroke="#000000" stroke-width="3.5" stroke-linecap="butt"/><path d="M151.53506,234.28131l7.98529,-10.64705" data-paper-data="{&quot;index&quot;:null}" fill="none" stroke="#000000" stroke-width="3.5" stroke-linecap="round"/><g fill="#000000" stroke="none" stroke-width="0" stroke-linecap="butt"><path d="M174.81024,167.80324l-0.16436,-0.87364l13.60944,0.1286l0.16436,0.87364c0,0 -2.14918,0.06192 -2.94291,0.76117c-0.8603,0.7579 13.5523,24.29502 13.5523,24.29502c0,0 4.02795,-16.56751 4.06304,-16.68756c0.26423,-0.90436 1.36641,-4.10429 0.64973,-5.99283c-0.78612,-2.07151 -3.67538,-2.23535 -3.67538,-2.23535l-0.11745,-0.76755l10.22283,0.11847l-0.00589,0.75579c0,0 -2.56711,0.76528 -3.07075,2.28986c-1.57029,4.75342 -7.47686,29.91488 -7.47686,29.91488l-0.92603,-0.05257c0,0 -19.58266,-30.98336 -20.57537,-31.58337c-1.52838,-0.9238 -3.30669,-0.94456 -3.30669,-0.94456z"/><path d="M160.44232,167.52529l-0.16436,-0.87364l13.60944,0.1286l0.16436,0.87362c0,0 -2.14918,0.06194 -2.94292,0.76119c-0.8603,0.7579 13.5523,24.295 13.5523,24.295c0,0 4.02795,-16.5675 4.06304,-16.68755c0.26423,-0.90436 1.36641,-4.10429 0.64973,-5.99283c-0.78612,-2.07151 -3.67538,-2.23535 -3.67538,-2.23535l-0.11745,-0.76755l10.22283,0.11846l-0.00587,0.75579c0,0 -2.56711,0.76526 -3.07075,2.28986c-1.57029,4.75342 -7.47688,29.91488 -7.47688,29.91488l-0.92603,-0.05257c0,0 -19.58268,-30.98336 -20.57538,-31.58337c-1.52838,-0.9238 -3.30667,-0.94456 -3.30667,-0.94456z"/></g><path d="M155.18037,176.20824c5.37705,7.44294 2.73235,17.42364 -5.90709,22.29252c-8.63944,4.86888 -20.00205,2.78217 -25.3791,-4.66078c-5.37705,-7.44294 -2.73235,-17.42364 5.90709,-22.29252c8.63944,-4.86888 20.00205,-2.78217 25.3791,4.66078z" fill="#ffffff" stroke="#000000" stroke-width="3.5" stroke-linecap="butt"/><path d="M158.76737,167.27995c1.17216,5.19102 2.2463,10.09068 3.76652,14.98273c0.68725,1.58452 1.46941,3.15233 1.66036,4.82471c0.18927,0.49728 0.38492,0.99544 0.58753,1.49475l2.38923,5.91702c0.1987,0.46114 0.30878,0.96944 0.30878,1.50345c0,2.10007 -1.70245,3.80252 -3.80252,3.80252c-0.0237,0 -0.04735,-0.00023 -0.07094,-0.00065l0.11409,0.60402c0.0526,0.25203 0.08025,0.51322 0.08025,0.78085c0,2.10007 -1.70245,3.80252 -3.80252,3.80252c-1.71052,0 -3.15725,-1.12944 -3.63512,-2.68324l-2.3772,-7.13159l0.07515,-0.02505l-0.1429,-0.20143c-1.26662,-6.29096 -3.74724,-13.56151 -4.70083,-20.40678c-0.41377,-1.60407 -0.75454,-3.24052 -0.97422,-4.94069l-0.49815,-3.48291c0,0 -0.19107,-1.33747 0.45182,-2.53184l-0.43737,-2.95358c-0.03342,-0.20277 -0.05082,-0.41093 -0.05082,-0.62316c0,-2.10007 1.70245,-3.80252 3.80252,-3.80252c1.75173,0 3.22682,1.18451 3.66795,2.79628l1.69373,5.67223c1.49039,0.8122 1.8946,2.60229 1.8946,2.60229z" fill="#ffffff" stroke="none" stroke-width="0.5" stroke-linecap="butt"/><path d="M199.93669,146.53358c-1.44365,9.06785 -10.36131,14.27208 -19.91817,11.62398c-9.55685,-2.6481 -16.1339,-12.14578 -14.69025,-21.21363c1.44365,-9.06785 10.3613,-14.27207 19.91815,-11.62396c9.55685,2.6481 16.1339,12.14576 14.69027,21.21361z" fill="#ffffff" stroke="#000000" stroke-width="3.5" stroke-linecap="butt"/><path d="M209.04086,151.70221c-0.10411,1.24943 -0.58586,2.05257 -1.1849,2.56789c0.43537,0.61846 0.69102,1.37256 0.69102,2.18636c0,1.17913 -0.5367,2.23291 -1.37914,2.93037c-0.67411,0.81423 -1.68106,1.34284 -2.81234,1.37733l-4.54021,0.16059c-1.0164,0.04606 -2.0324,0.08617 -3.04813,0.12106c-9.01046,2.2419 -20.5132,0.61776 -29.67411,0.73183l-0.12582,-0.05762c-0.01749,-0.00149 -0.03498,-0.00304 -0.05244,-0.00467l-0.00429,0.05149l-2.7352,-0.22794c-0.22949,0.04864 -0.45855,0.09882 -0.68716,0.15052c0,0 -1.61911,0.35981 -2.95631,-0.46518c-1.80988,-0.29203 -3.19211,-1.8615 -3.19211,-3.75379c0,-1.99398 1.53477,-3.62947 3.48743,-3.78965c-0.28428,-0.53282 -0.44541,-1.14129 -0.44541,-1.78738c0,-2.10007 1.70245,-3.80252 3.80252,-3.80252h7.60504c3.60698,-1.18842 7.5936,-0.23548 11.38231,-0.49685c5.44533,-0.37566 10.70924,-0.51812 16.15386,-0.51387l6.24177,0.51685c0,0 3.78938,0.31579 3.4736,4.10517z" fill="#ffffff" stroke="none" stroke-width="0.5" stroke-linecap="butt"/><text transform="translate(284.14753,181.75579) scale(0.94894,0.94894)" font-size="40" xml:space="preserve" fill="#ffffff" fill-rule="nonzero" stroke="none" stroke-width="1" stroke-linecap="butt" stroke-linejoin="miter" stroke-miterlimit="10" stroke-dasharray="" stroke-dashoffset="0" font-family="Serif" font-weight="normal" text-anchor="start" style="mix-blend-mode: normal"><tspan x="0" dy="0">IKIPEDI</tspan></text><g fill="#ffffff" stroke="none" stroke-width="0" stroke-linecap="butt"><path d="M252.57312,150.73793v-0.87528h13.27193v0.87528c0,0 -2.11101,0.08253 -3.01494,0.7919c-0.97976,0.76884 8.77443,24.2559 8.77443,24.2559c0,0 6.98008,-16.66667 7.03641,-16.78751c0.42435,-0.9102 2.08926,-4.13233 1.7362,-6.02103c-0.38726,-2.07167 -3.17977,-2.20873 -3.17977,-2.20873l0.02633,-0.76925l9.96527,0.02193l-0.14465,0.75863c0,0 -2.64855,0.79243 -3.42079,2.3274c-2.40771,4.7858 -12.80264,30.09588 -12.80264,30.09588l-0.89502,-0.04396c0,0 -13.43646,-30.91166 -14.29598,-31.50447c-1.32335,-0.91271 -3.0568,-0.91668 -3.0568,-0.91668z"/><path d="M238.58766,150.59523v-0.87528h13.27193v0.87528c0,0 -2.11101,0.08253 -3.01494,0.7919c-0.97976,0.76884 8.77443,24.2559 8.77443,24.2559c0,0 6.98008,-16.66667 7.03641,-16.78751c0.42435,-0.9102 2.08926,-4.13233 1.7362,-6.02103c-0.38726,-2.07167 -3.17977,-2.20873 -3.17977,-2.20873l0.02633,-0.76925l9.96527,0.02193l-0.14465,0.75863c0,0 -2.64855,0.79243 -3.42079,2.3274c-2.40771,4.7858 -12.80264,30.09588 -12.80264,30.09588l-0.89502,-0.04396c0,0 -13.43646,-30.91166 -14.29598,-31.50447c-1.32335,-0.91271 -3.0568,-0.91668 -3.0568,-0.91668z"/></g><text transform="translate(443.36159,181.84495) scale(1.18114,1.18114)" font-size="40" xml:space="preserve" fill="#ffffff" fill-rule="nonzero" stroke="none" stroke-width="1" stroke-linecap="butt" stroke-linejoin="miter" stroke-miterlimit="10" stroke-dasharray="" stroke-dashoffset="0" font-family="Serif" font-weight="normal" text-anchor="start" style="mix-blend-mode: normal"><tspan x="0" dy="0">A</tspan></text><text transform="translate(263.37682,222.53729) rotate(0.31612) scale(0.83604,0.99543) skewX(-21.66322)" font-size="40" xml:space="preserve" fill="#6dceff" fill-rule="nonzero" stroke="none" stroke-width="1" stroke-linecap="butt" stroke-linejoin="miter" stroke-miterlimit="10" stroke-dasharray="" stroke-dashoffset="0" font-family="Serif" font-weight="normal" text-anchor="start" style="mix-blend-mode: normal"><tspan x="0" dy="0">Speedruns</tspan></text></g></g></svg>