<svg xmlns="http://www.w3.org/2000/svg" width="176" height="32" viewBox="-1 -1 502 87" id="Wikipedia_wordmark" y="254"><path d="M55.27 22.07L53.3 18.1c-3.33-6.62-3.26-6.97-6.63-7.4-.94-.14-1.43-.26-1.43-.72v-2.1l.28-.2h19.65l.52.16v2.1c0 .46-.35.7-1.04.7l-1.43.2c-3.6.3-3 1.76-.62 6.53l22.72 46.46.78.2 20.16-47.83c.7-1.93.6-3.3-.3-4.1-.9-.8-1.55-1.25-3.9-1.35l-1.88-.1c-.23 0-.45-.08-.66-.23a.72.72 0 01-.32-.58v-2l.3-.2h22.77l.23.2v2c0 .54-.3.8-.92.8-2.98.14-5.2.8-6.63 1.94a11.43 11.43 0 00-3.36 4.86s-18.55 42.43-24.9 56.54c-2.42 4.62-4.8 4.2-6.9-.14C75.35 64.7 62.86 37 62.86 37l-7.6-14.93z"/><path d="M91.66 7.65s-12.8-.04-18.52 0l-.28.2v2c0 .23.1.42.3.57.22.16.44.24.67.24l.92.1c2.33.1 3.4.7 3.72 1.1.56.67.83 1.4-.52 4.34L54.03 63.9l-.62-.15s-17.13-36.13-22.1-48.2a8.59 8.59 0 01-.73-2.76c0-1.24 1.1-1.9 3.32-2l2.57-.1c.7 0 1.04-.27 1.04-.82V7.9l-.23-.2s-20.52-.03-24.76 0l-.22.2v2.08c0 .38.48.6 1.43.72 2.62.14 4.33.55 5.15 1.24.82.7 1.7 2.47 2.84 5.23 6.22 14.96 19.45 41.65 25.9 56.86 1.85 4.15 4.2 4.8 7.02-.13 4.9-9.1 18.2-36.87 18.2-36.87l10.47-19.6c1.2-2.05 2.4-3.9 2.98-4.76 1.1-1.57 1.7-1.87 4.7-2 .6 0 .9-.28.9-.83V7.86l-.22-.2zm38.94 61.93c0 2.3 1.05 3.64 4.38 3.95l2.2.2c.3 0 .6.22.6.63v2.2l-.1.2s-7.9-.2-11.12-.2c-2.9 0-11.03.2-11.03.2l-.2-.2v-2.2c0-.4.3-.62.72-.62l2.08-.2c3.44-.32 4.48-1.98 4.48-3.96V34.95c0-2.3-1.25-2.92-4.47-3.22l-2.08-.22c-.4 0-.72-.08-.72-.4v-2.4l.1-.2s8.22.2 11.44.2a726 726 0 0010.82-.2l.1.2V31c0 .3-.22.5-.63.5l-2.2.22c-3.2.3-4.36 1.14-4.36 3.23v34.63zm30.7 0c0 2.3 1.36 3.43 4.37 3.95l1.15.2c.3.1.62.22.62.63v2.2l-.1.2s-6.55-.2-9.67-.2c-2.92 0-11.44.2-11.44.2l-.2-.2v-2.2c0-.4.3-.62.72-.62l2.08-.2c3.12-.32 4.47-1.98 4.47-3.96V34.95c0-2.3-1.15-2.92-4.47-3.22l-2.08-.22c-.42 0-.73-.08-.73-.4v-2.4l.1-.2s8.53.2 11.75.2c2.92 0 9.47-.2 9.47-.2l.1.2V31c0 .3-.2.4-.62.5l-1.15.22c-3.22.62-4.36 1.14-4.36 3.23v15.7c3.44 0 5.4-1.76 10-6.65 4.15-4.58 7.37-8.42 7.37-10.4 0-.84-.93-1.77-3-2.1-.43-.1-.64-.2-.64-.5v-2.4l.1-.1s8.43.2 11.45.2c2.7 0 7.28-.2 7.28-.2l.3.1V31c0 .3-.3.5-.82.5-4.06.32-6.87.53-10.6 4.8l-8.95 10.3c-1.78 1.86-2.4 3-2.4 3.84 0 .62.4 1.14.93 1.76l15.7 18.93c1.25 1.45 3.75 2.08 5.83 2.5l.52.1c.3.1.73.3.73.62v2.18l-.3.1s-5.52-.1-8.43-.1c-2.6 0-6.34.1-6.34.1l-.1-.1v-1.25c0-1.35-.1-2.5-1.57-4.15l-11.54-14.36c-1.56-2.08-3.23-2.6-5.5-2.6v15.4zm56.07 0c0 2.3 1.04 3.64 4.37 3.95l2.2.2c.3 0 .6.22.6.63v2.2l-.1.2s-7.9-.2-11.12-.2c-2.9 0-11.03.2-11.03.2l-.2-.2v-2.2c0-.4.3-.62.7-.62l2.1-.2c3.43-.32 4.47-1.98 4.47-3.96V34.95c0-2.3-1.25-2.92-4.48-3.22l-2.1-.22c-.4 0-.7-.08-.7-.4v-2.4l.1-.2s8.2.2 11.43.2a726 726 0 0010.82-.2l.1.2V31c0 .3-.2.5-.62.5l-2.2.22c-3.2.3-4.36 1.14-4.36 3.23v34.63zm22.48-34.43c0-3.22-1.36-3.33-6.24-3.64-.62 0-.72-.3-.72-.5v-2.4l.2-.1c1.57 0 7.7.2 10.72.2 2.9 0 7.07-.2 10.92-.2 14.76 0 17.46 7.27 17.46 12.7 0 6.23-3 16-17.77 16-2.6 0-4.67-.2-6.55-1.04V70.1c0 2.28 1.25 2.8 4.58 3.32l2.08.3c.43.12.74.22.74.64v2.18l-.1.2s-8.32-.2-11.54-.2c-2.9 0-10.7.2-10.7.2l-.12-.2v-2.18c0-.42.2-.52.63-.63l2.2-.3c3.2-.43 4.25-1.36 4.25-3.34V35.14zm8 18.1c2.08.84 4.68.94 6.76.94 6.26 0 9.26-3.76 9.26-11.76 0-8.95-4.05-10.92-9.77-10.92-5 0-6.25.93-6.25 3.64v18.1zm42.25 23.3c-3.13 0-10.3.2-10.3.2l-.1-.2v-2.3c0-.2.1-.5.62-.5l2.4-.22c3.22-.3 4.16-2.4 4.16-4.47V34.74c0-2.4-1.25-2.8-4.17-3l-2.38-.23c-.63-.08-.63-.3-.63-.4v-2.4l.1-.2s8.1.2 11.23.2h15.3c3.1 0 10.5-.2 10.5-.2l.2.2c.1 4.47.84 8.54 1.57 12.48l-2.6.42c-1.14-3.85-3.1-9.36-9.77-9.36h-8.32c-1.97 0-3 .73-3 2.5V49.8h7.8c2.9 0 3.63-1.25 4.05-3.33l.62-2.2c0-.3.2-.52.62-.52h1.76c.2 0 .2.1.2.3-.2 2.3-.6 5.22-.6 7.7 0 2.6.4 4.8.6 7.2l-.2.2H308c-.52 0-.74-.2-.74-.52l-.52-2.3c-.4-2.07-1.35-3.22-4.06-3.22h-7.8v15.92c0 1.97 1.14 3.95 3.02 3.95h9.88c5.3 0 8.22-3.32 9.47-8.73l2.6.3-2.1 11.97-.2.2s-6.14-.2-9.26-.2h-18.2zm39.1-2.81l2.4-.2c3.12-.32 4.16-1.26 4.16-4.48V34.74c0-2.7-.73-2.7-4.16-3l-2.28-.23c-.42 0-.74-.2-.74-.5v-2.3l.1-.2s9.16.2 11.03.2c1.98 0 11.04-.2 13.74-.2 17.37 0 25.9 10.8 25.9 24.64 0 18.2-12.9 23.6-24.44 23.6-8.32 0-11.95-.2-15.18-.2-3.12 0-11.03.2-11.03.2l-.1-.2v-2.18c-.02-.3.2-.62.6-.62zm23.2 0c11.44 0 17.9-4.26 17.9-18.82 0-10.82-2.4-23.4-19.87-23.4-4.06 0-6.66.62-6.66 3.22v34.32c0 2.9.72 4.68 8.63 4.68zm51.5-4.16c0 2.3 1.03 3.64 4.36 3.95l2.2.2c.3 0 .6.22.6.63v2.2l-.1.2s-7.9-.2-11.12-.2c-2.9 0-11.02.2-11.02.2l-.2-.2v-2.2c0-.4.3-.62.7-.62l2.1-.2c3.43-.32 4.47-1.98 4.47-3.96V34.95c0-2.3-1.26-2.92-4.48-3.22l-2.1-.22c-.4 0-.7-.08-.7-.4v-2.4l.1-.2s8.2.2 11.42.2a726 726 0 0010.82-.2l.1.2V31c0 .3-.2.5-.62.5l-2.2.22c-3.2.3-4.35 1.14-4.35 3.23v34.63zm32.03 3.95l3.02.2c.42 0 .83.33.83.84v1.98l-.2.2s-11.34-.2-13.84-.2c-2.7 0-9.36.2-9.36.2l-.2-.2v-1.98c0-.5.3-.83.82-.83 4.58-.3 7.17-1.14 10.1-7.8l23.07-54.08c1.14-2.7 1.98-3.75 3.54-3.75 1.46 0 2 1.05 2.8 3.13l21.33 56.37c1.46 4.06 3.54 5.62 7.7 6.03l1.15.1c.52 0 1.04.3 1.04.84v1.97l-.3.2s-8.02-.2-12.08-.2c-3.64 0-13.83.2-13.83.2l-.1-.2v-1.97c0-.53.2-.84.74-.84l2.9-.2c3.96-.3 5.43-1.57 4.38-4.48l-6.34-17.58h-21.63c-2.5 0-3.12.42-3.64 1.77l-6.03 15.08c-1.04 2.6.32 4.9 4.16 5.2zM461.4 47.1l-10.07-27.76h-.2l-10.4 26.42c-.43 1.04.3 1.35 2.58 1.35h18.1z"/></svg>