<svg version="1.1" xmlns="http://www.w3.org/2000/svg" xmlns:xlink="http://www.w3.org/1999/xlink" width="96" height="69" viewBox="0,0,96,69"><defs><linearGradient x1="99.24022" y1="163.2952" x2="190.50094" y2="163.2952" gradientUnits="userSpaceOnUse" id="color-1"><stop offset="0" stop-color="#a5a5a5" stop-opacity="0"/><stop offset="1" stop-color="#a5a5a5"/></linearGradient></defs><g transform="translate(-99.24023,-130.24451)"><g data-paper-data="{&quot;isPaintingLayer&quot;:true}" fill-rule="nonzero" stroke-linecap="butt" stroke-linejoin="miter" stroke-miterlimit="10" stroke-dasharray="" stroke-dashoffset="0" style="mix-blend-mode: normal"><path d="M123.41307,194.1523l-0.30664,-18.34836c0,0 -13.44837,3.97288 -18.74703,0.47125c-5.29865,-3.50163 -7.32089,-9.78482 -1.98696,-14.17336c5.33393,-4.38854 20.28059,-0.87789 20.28059,-0.87789l0.76003,-14.07163l20.38669,-0.31941c0,0 -4.76867,-10.20587 1.25456,-12.68059c6.02323,-2.47472 12.1728,-2.18481 16.02411,0.32118c4.54305,2.95609 2.88038,10.67766 2.88038,10.67766l26.54213,2.00116l-0.72138,14c0,0 -8.33476,-0.71479 -13.40781,1.35181c-4.44912,1.81243 -5.72338,6.34129 -5.66419,7.57217c0.05304,1.10285 2.33547,5.02471 7.00014,6.21567c5.18007,1.32255 12.79323,-0.13964 12.79323,-0.13964v18l-23.80537,-1c0,0 0.61156,-4.01072 -2.28356,-5.20249c-4.15874,-1.71195 -12.48472,-0.79751 -14.30807,-0.79751c-3.57111,0 -7.93513,7 -7.93513,7z" fill="url(#color-1)" stroke="#000000" stroke-width="0"/><path d="M141.58578,194.1523l-0.23272,-18.34837c0,0 -10.2064,3.97287 -14.22772,0.47124c-4.02132,-3.50163 -5.55606,-9.78481 -1.50797,-14.17335c4.04809,-4.38854 15.3916,-0.8779 15.3916,-0.8779l0.57681,-14.07163l15.47212,-0.31941c0,0 -3.6191,-10.20587 0.95213,-12.68059c4.57122,-2.47472 9.23833,-2.1848 12.16122,0.32118c3.44787,2.95609 2.18602,10.67766 2.18602,10.67766l20.14368,2.00116l-0.54747,14c0,0 -6.32552,-0.71479 -10.17562,1.35181c-3.37658,1.81243 -4.34366,6.34129 -4.29874,7.57216c0.04025,1.10285 1.77247,5.0247 5.31263,6.21567c3.93132,1.32255 9.7092,-0.13964 9.7092,-0.13964v18l-18.06667,-1c0,0 0.46413,-4.01072 -1.73306,-5.2025c-3.1562,-1.71195 -9.47506,-0.7975 -10.85886,-0.7975c-2.71023,0 -6.02222,7 -6.02222,7z" fill="#ffffff" stroke="#000000" stroke-width="2"/></g></g>
  <use id="V (Left)" x="46.02" y="27.909" xlink:href="#V"/>
	<use id="V (Right)" x="54.265" y="27.909" xlink:href="#V"/>
	<defs>
		<path transform="scale(0.25,0.25)" id="V" d="M93.849,0l0,2.139c-2.822,0.501 -4.957,1.388 -6.407,2.659c-2.077,1.889 -4.525,4.779 -6.132,8.672l-32.685,66.712l-2.175,0l-32.813,-67.579c-1.528,-3.469 -3.606,-5.589 -4.233,-6.359c-0.979,-1.195 -2.184,-2.13 -3.614,-2.804c-1.431,-0.675 -3.361,-1.108 -5.79,-1.301l0,-2.139l31.928,0l-0,2.139c-3.683,0.347 -5.439,0.964 -6.537,1.85c-1.097,0.886 -1.645,2.023 -1.645,3.411c-0,1.927 0.901,4.933 2.703,9.018l24.233,45.959l23.692,-45.381c1.842,-4.47 3.37,-7.573 3.37,-9.307c0,-1.118 -0.568,-2.187 -1.705,-3.209c-1.136,-1.021 -2.422,-1.744 -5.125,-2.168c-0.196,-0.038 -0.529,-0.096 -1,-0.173l0,-2.139l23.935,0Z"/>
	</defs>
</svg>

